<?xml version="1.0" encoding="UTF-8"?>
<svg xmlns="http://www.w3.org/2000/svg" version="1.1" viewBox="0 0 191.7 33.7">
  <defs>
    <style>
      .cls-1 {
        fill: #fefefe;
      }
    </style>
  </defs>
  <!-- Generator: Adobe Illustrator 28.7.1, SVG Export Plug-In . SVG Version: 1.2.0 Build 142)  -->
  <g>
    <g id="Layer_1">
      <g>
        <path class="cls-1" d="M70.8,17V6.4c0-3.5-2.4-6-5.8-6h-21.4c-3.4,0-5.9,2.5-5.9,5.9v21.4c0,3.4,2.5,5.9,5.9,5.9h20.9c3.9,0,6.2-2.5,6.3-6.3v-10.3ZM63.4,28.4c-3-.1-6.1,0-9.1,0h-9.3c-1.4,0-2-.5-2-1.9V7.8c0-1.5.5-2,2-2h18.9c1.5,0,1.9.7,1.9,2.1v18.2c0,1.7-.6,2.4-2.4,2.4h0Z"/>
        <path class="cls-1" d="M130,.4h-21.1c-3.9,0-6.2,2.4-6.2,6.3v23.7c0,1.9.8,3.1,2.5,3,1.8,0,2.7-1.1,2.7-3.2,0-7.4,0-14.7,0-22.1s.4-2.6,2.4-2.5c6.1,0,12.2,0,18.2,0,1.7,0,2.2.6,2.2,2.2v17.8c0,2-.7,2.6-2.7,2.6-5-.1-9.9,0-14.9,0s-3.1.7-3.1,2.7,1.1,2.7,3,2.7h15.8c4.5,0,6.9-2.3,7-6.7.1-6.9.1-13.8,0-20.6,0-3.3-2.7-5.9-6-5.9h.2Z"/>
        <path class="cls-1" d="M173.2,6.5c0-3.6-2.4-6-6-6h-21.1c-3.5,0-5.9,2.5-5.9,5.9v21.3c0,3.3,2.3,5.9,5.6,5.9,7.2,0,14.4,0,21.6,0,3.5,0,5.7-2.6,5.8-6.1V6.3v.2ZM168.1,26.3c0,1.5-.5,2.1-2.1,2.1h-18.6c-1.6,0-2.1-.6-2.1-2.1V7.9c0-1.6.5-2.1,2.1-2.1h18.7c1.5,0,2.1.5,2.1,2.1v18.4h0Z"/>
        <path class="cls-1" d="M6.3,2.5C4.5.7,2.4.5,1,1.8-.5,3.3-.2,5.3,1.7,7.2c8.3,8.2,16.6,16.4,24.9,24.5.7.7,1.6,1.4,2.5,1.7,2.1.7,4.2-.8,4.2-3.6-.3-.5-.8-1.7-1.6-2.5C23.3,19.1,14.9,10.8,6.3,2.5Z"/>
        <path class="cls-1" d="M1.7,27.6c-1.7,1.7-1.9,3.6-.6,5.1,1.3,1.5,3.5,1.4,5.3-.3,2.2-2.1,4.3-4.3,6.4-6.4s2.2-2.1,3.4-3.3c-1.7-1.6-3.2-3-5-4.8-3.3,3.4-6.4,6.6-9.5,9.7Z"/>
        <path class="cls-1" d="M27.5,1.9c-3.4,3.2-10.3,10-10.3,10l5.2,5.2s6.7-7.1,9.8-10.4c1.5-1.6,1.6-3.7.3-5-1.2-1.2-3.6-1.3-5,.1h0Z"/>
        <path class="cls-1" d="M156.5,9.5c-4.4,0-7.6,3.1-7.6,7.5s3.1,7.6,7.2,7.7c4.3.1,7.8-3,7.9-7.3.1-4.5-3.1-7.8-7.5-7.9h0Z"/>
        <path class="cls-1" d="M95.9,23.9c-5.9-7.3-12-14.5-18-21.8-1.5-1.8-3.4-2.2-4.8-1-1.4,1.1-1.5,3.1,0,4.9,1.2,1.4,2.3,2.8,3.5,4.2,5.9,7.3,12,14.5,18,21.8,1.5,1.8,3.4,2.2,4.8,1,1.4-1.1,1.5-3.1,0-4.9-1.2-1.4-2.3-2.8-3.5-4.2Z"/>
        <g>
          <path class="cls-1" d="M185.3,11.8c-3,0-5.4-2.4-5.4-5.4s2.4-5.4,5.4-5.4,5.4,2.4,5.4,5.4-2.4,5.4-5.4,5.4h0ZM189.8,1.9c-1.2-1.2-2.8-1.9-4.5-1.9s-3.3.7-4.5,1.9c-1.2,1.2-1.9,2.8-1.9,4.5s.7,3.3,1.9,4.5c1.2,1.2,2.8,1.9,4.5,1.9s3.3-.7,4.5-1.9c1.2-1.2,1.9-2.8,1.9-4.5s-.7-3.3-1.9-4.5h0Z"/>
          <path class="cls-1" d="M185.2,6.1h-1.2v-2.5c.3,0,.6,0,1.1,0,1.3,0,2,.4,2,1.2s-.6,1.3-1.8,1.3h0ZM186.8,6.6c.8-.4,1.3-.9,1.3-1.8s-.3-1.1-.8-1.5c-.5-.4-1.3-.5-2.2-.5s-1.3,0-2.1.2v7h1v-3.1h1.3c1,0,1.7,1,2,3.1h1c-.2-1.1-.4-1.9-.6-2.3-.2-.5-.5-.8-.9-1.1h0Z"/>
        </g>
      </g>
    </g>
  </g>
</svg>