<svg viewBox="0 0 173.1 33.3" xmlns="http://www.w3.org/2000/svg"><g fill="#fefefe"><path d="m70.7 16.6c0-3.5 0-7 0-10.6 0-3.5-2.4-6-5.8-6-7.1 0-14.2 0-21.4 0-3.4 0-5.9 2.5-5.9 5.9v21.4c0 3.4 2.5 5.9 5.9 5.9h20.9c3.9 0 6.2-2.5 6.3-6.3 0-3.4 0-6.9 0-10.3zm-7.4 11.4c-3-.1-6.1 0-9.1 0-3.1 0-6.2 0-9.3 0-1.4 0-2-.5-2-1.9 0-6.2 0-12.5 0-18.7 0-1.5.5-2 2-2h18.9c1.5 0 1.9.7 1.9 2.1v18.2c0 1.7-.6 2.4-2.4 2.4z"/><path d="m129.9 0c-7 0-14.1 0-21.1 0-3.9 0-6.2 2.4-6.2 6.3v11.5 12.2c0 1.9.8 3.1 2.5 3 1.8 0 2.7-1.1 2.7-3.2-.1-7.4 0-14.7 0-22.1 0-1.8.4-2.6 2.4-2.5 6.1.1 12.2.1 18.2 0 1.7 0 2.2.6 2.2 2.2v17.8c0 2-.7 2.6-2.7 2.6-5-.1-9.9 0-14.9 0-2 0-3.1.7-3.1 2.7 0 2.1 1.1 2.7 3 2.7h15.8c4.5 0 6.9-2.3 7-6.7.1-6.9.1-13.8 0-20.6 0-3.3-2.7-5.9-6-5.9z"/><path d="m173.1 6.1c0-3.6-2.4-6-6-6-7 0-14.1 0-21.1 0-3.5 0-5.9 2.5-5.9 5.9v21.3c0 3.3 2.3 5.9 5.6 5.9 7.2.1 14.4.1 21.6 0 3.5 0 5.7-2.6 5.8-6.1 0-3.5 0-7 0-10.6 0-1.8 0-3.5 0-5.3s0-3.5 0-5.3zm-5.1 19.8c0 1.5-.5 2.1-2.1 2.1-3.1 0-6.2 0-9.3 0s-6.2 0-9.3 0c-1.6 0-2.1-.6-2.1-2.1 0-6.1 0-12.3 0-18.4 0-1.6.5-2.1 2.1-2.1h18.7c1.5 0 2.1.5 2.1 2.1v18.4z"/><path d="m6.2 2.1c-1.8-1.8-3.9-2-5.3-.7-1.5 1.5-1.2 3.5.7 5.4 8.3 8.2 16.6 16.4 24.9 24.5.7.7 1.6 1.4 2.5 1.7 2.1.7 4.2-.8 4.2-3.6-.3-.5-.8-1.7-1.6-2.5-8.4-8.2-16.8-16.5-25.4-24.8z"/><path d="m1.6 27.2c-1.7 1.7-1.9 3.6-.6 5.1s3.5 1.4 5.3-.3c2.2-2.1 4.3-4.3 6.4-6.4 1.1-1.1 2.2-2.1 3.4-3.3-1.7-1.6-3.2-3-5-4.8-3.3 3.4-6.4 6.6-9.5 9.7z"/><path d="m27.4 1.5c-3.4 3.2-10.3 10-10.3 10l5.2 5.2s6.7-7.1 9.8-10.4c1.5-1.6 1.6-3.7.3-5-1.2-1.2-3.6-1.3-5 .1z"/><path d="m156.4 9.1c-4.4 0-7.6 3.1-7.6 7.5 0 4.1 3.1 7.6 7.2 7.7 4.3.1 7.8-3 7.9-7.3.1-4.5-3.1-7.8-7.5-7.9z"/><path d="m95.8 23.5c-5.9-7.3-12-14.5-18-21.8-1.5-1.8-3.4-2.2-4.8-1-1.4 1.1-1.5 3.1 0 4.9 1.2 1.4 2.3 2.8 3.5 4.2 5.9 7.3 12 14.5 18 21.8 1.5 1.8 3.4 2.2 4.8 1 1.4-1.1 1.5-3.1 0-4.9-1.2-1.4-2.3-2.8-3.5-4.2z"/></g></svg>